<svg width="256" height="256" viewBox="0 0 256 256" fill="none" xmlns="http://www.w3.org/2000/svg">
<rect width="256" height="256" fill="white"/>
<path d="M111.17 147.779H47.7578C46.7045 147.779 45.6944 147.413 44.9496 146.762C44.2048 146.11 43.7864 145.227 43.7864 144.305C43.7864 143.384 44.2048 142.5 44.9496 141.849C45.6944 141.198 46.7045 140.832 47.7578 140.832H111.17C112.223 140.832 113.234 141.198 113.978 141.849C114.723 142.5 115.142 143.384 115.142 144.305C115.142 145.227 114.723 146.11 113.978 146.762C113.234 147.413 112.223 147.779 111.17 147.779Z" fill="#303030"/>
<path d="M111.17 170.296H47.7578C46.7045 170.296 45.6944 169.93 44.9496 169.278C44.2048 168.627 43.7864 167.743 43.7864 166.822C43.7864 165.901 44.2048 165.017 44.9496 164.366C45.6944 163.714 46.7045 163.348 47.7578 163.348H111.17C112.223 163.348 113.234 163.714 113.978 164.366C114.723 165.017 115.142 165.901 115.142 166.822C115.142 167.743 114.723 168.627 113.978 169.278C113.234 169.93 112.223 170.296 111.17 170.296Z" fill="#303030"/>
<path d="M111.17 192.788H47.7579C47.2271 192.801 46.6987 192.721 46.2039 192.553C45.7091 192.384 45.2579 192.13 44.8771 191.807C44.4964 191.483 44.1937 191.096 43.987 190.668C43.7803 190.24 43.6738 189.78 43.6738 189.316C43.6738 188.851 43.7803 188.391 43.987 187.964C44.1937 187.536 44.4964 187.148 44.8771 186.825C45.2579 186.501 45.7091 186.247 46.2039 186.079C46.6987 185.91 47.2271 185.83 47.7579 185.843H111.17C111.701 185.83 112.229 185.91 112.724 186.079C113.219 186.247 113.67 186.501 114.051 186.825C114.432 187.148 114.734 187.536 114.941 187.964C115.148 188.391 115.254 188.851 115.254 189.316C115.254 189.78 115.148 190.24 114.941 190.668C114.734 191.096 114.432 191.483 114.051 191.807C113.67 192.13 113.219 192.384 112.724 192.553C112.229 192.721 111.701 192.801 111.17 192.788Z" fill="#303030"/>
<path d="M111.17 215.29H47.7579C47.2271 215.304 46.6987 215.224 46.2039 215.055C45.7091 214.886 45.2579 214.633 44.8771 214.309C44.4964 213.985 44.1937 213.598 43.987 213.17C43.7803 212.742 43.6738 212.283 43.6738 211.818C43.6738 211.354 43.7803 210.894 43.987 210.466C44.1937 210.038 44.4964 209.651 44.8771 209.327C45.2579 209.003 45.7091 208.75 46.2039 208.581C46.6987 208.413 47.2271 208.332 47.7579 208.346H111.17C111.701 208.332 112.229 208.413 112.724 208.581C113.219 208.75 113.67 209.003 114.051 209.327C114.432 209.651 114.734 210.038 114.941 210.466C115.148 210.894 115.254 211.354 115.254 211.818C115.254 212.283 115.148 212.742 114.941 213.17C114.734 213.598 114.432 213.985 114.051 214.309C113.67 214.633 113.219 214.886 112.724 215.055C112.229 215.224 111.701 215.304 111.17 215.29Z" fill="#303030"/>
<path d="M207.341 76.2351V190.278L190.248 188.881C190.246 189.339 183.858 190.977 183.858 190.977C183.858 190.977 176.082 191.353 175.71 191.676C175.339 191.998 175.716 208.55 175.231 208.723C174.746 208.897 175.595 209.144 175.071 209.143V211.378L126.149 215.85C125.625 215.852 125.106 215.763 124.622 215.59C124.137 215.416 123.696 215.161 123.324 214.838C122.953 214.516 122.657 214.132 122.455 213.71C122.253 213.287 122.147 212.834 122.145 212.376V76.2351C122.147 75.777 122.253 75.3239 122.455 74.9014C122.657 74.479 122.953 74.0955 123.324 73.7729C123.696 73.4503 124.137 73.195 124.622 73.0214C125.106 72.8478 125.625 72.7594 126.149 72.7613H203.338C203.862 72.7594 204.381 72.8478 204.865 73.0214C205.35 73.195 205.79 73.4503 206.162 73.7729C206.534 74.0955 206.829 74.479 207.032 74.9014C207.234 75.3239 207.339 75.777 207.341 76.2351Z" fill="#FF9604"/>
<path d="M115.004 76.5115V121.523C114.999 122.448 114.575 123.332 113.824 123.983C113.073 124.634 112.058 124.998 111.001 124.994H47.9081C46.8528 124.995 45.8398 124.631 45.0912 123.98C44.3426 123.33 43.9194 122.446 43.9143 121.523V76.5115C43.9194 75.5885 44.3426 74.7048 45.0912 74.0542C45.8398 73.4035 46.8528 73.039 47.9081 73.0405H111.014C112.068 73.0398 113.081 73.4046 113.828 74.0552C114.576 74.7057 114.999 75.589 115.004 76.5115Z" fill="#38A2FB"/>
<path d="M174.912 210.819L172.356 215.85H126.149C125.625 215.852 125.106 215.763 124.622 215.59C124.137 215.416 123.696 215.161 123.324 214.838C122.953 214.516 122.657 214.132 122.455 213.71C122.253 213.287 122.147 212.834 122.145 212.376V76.2351C122.147 75.777 122.253 75.3239 122.455 74.9014C122.657 74.479 122.953 74.0955 123.324 73.7729C123.696 73.4503 124.137 73.195 124.622 73.0214C125.106 72.8478 125.625 72.7594 126.149 72.7613H203.338C203.862 72.7594 204.381 72.8478 204.865 73.0214C205.35 73.195 205.79 73.4503 206.162 73.7729C206.534 74.0955 206.829 74.479 207.032 74.9014C207.234 75.3239 207.339 75.777 207.341 76.2351V188.741L200.152 189.859C200.15 190.317 193.965 189.437 193.762 189.859C193.56 190.282 187.584 189.537 187.213 189.859C186.841 190.182 175.875 191.223 175.391 191.396C174.906 191.57 175.435 210.821 174.912 210.819ZM130.152 208.905H169.48L173.634 188.741C183.858 184.829 199.335 190.681 199.335 182.453C199.335 147.005 199.335 120.656 199.335 79.7061H130.152V208.905Z" fill="#303030"/>
<path d="M111.014 124.994H47.9081C46.8528 124.995 45.8398 124.631 45.0912 123.98C44.3426 123.33 43.9194 122.446 43.9143 121.523V76.5115C43.9194 75.5885 44.3426 74.7048 45.0912 74.0542C45.8398 73.4035 46.8528 73.039 47.9081 73.0405H111.014C112.068 73.0398 113.081 73.4046 113.828 74.0552C114.576 74.7057 114.999 75.589 115.004 76.5115V121.523C114.999 122.446 114.576 123.329 113.828 123.979C113.081 124.63 112.068 124.995 111.014 124.994ZM51.9211 118.049H107.017V79.9854H51.9211V118.049Z" fill="#303030"/>
<path d="M175.861 196.238C175.861 194.099 177.424 192.673 179.77 192.673H221.208L215.735 197.665C214.171 199.091 214.171 201.587 215.735 202.656C218.081 204.796 220.426 203.37 221.208 202.656L233.327 191.603C234.89 190.177 234.89 188.037 233.327 186.611L221.208 175.557C219.644 174.131 217.299 174.131 215.735 175.557C214.171 176.984 214.171 179.123 215.735 180.549L221.208 185.541H179.77C173.124 185.541 168.042 190.177 168.042 196.238V212.284C168.042 214.423 169.606 215.849 171.951 215.849C174.297 215.849 175.861 214.423 175.861 212.284V196.238Z" fill="black"/>
<path d="M238.569 203.733C236.218 203.733 234.651 205.093 234.651 207.134V222.436C234.651 224.477 233.083 225.837 230.732 225.837H189.2L194.686 221.076C196.253 219.716 196.253 217.675 194.686 216.315C193.118 214.955 190.767 214.955 189.2 216.315L177.054 226.857C175.487 228.217 175.487 230.258 177.054 231.618L189.2 242.16C191.551 244.2 193.902 242.84 194.686 242.16C196.253 240.799 196.253 238.759 194.686 237.399L189.2 232.638H230.732C237.393 232.638 242.487 228.217 242.487 222.436V207.134C242.487 205.093 240.92 203.733 238.569 203.733Z" fill="black"/>
<path d="M217.126 13.5132H36.5255C23.4274 13.5132 12.7625 24.7909 12.7625 38.642V209.516C12.7625 223.367 23.4274 234.644 36.5255 234.644H150.589C153.212 234.644 155.342 232.393 155.342 229.619C155.342 226.844 153.212 224.593 150.589 224.593H36.5255C28.6645 224.593 22.2676 217.828 22.2676 209.516V63.7704H231.384V169.31C231.384 172.084 233.513 174.336 236.137 174.336C238.76 174.336 240.889 172.084 240.889 169.31V38.642C240.889 24.7909 230.224 13.5132 217.126 13.5132ZM231.384 53.7191H22.2676V38.642C22.2676 30.3293 28.6645 23.5649 36.5255 23.5649H217.126C224.987 23.5649 231.384 30.3293 231.384 38.642V53.7191H231.384Z" fill="black"/>
<path d="M40.8258 43.9456C43.9727 43.9456 46.5237 41.7001 46.5237 38.9301C46.5237 36.1601 43.9727 33.9146 40.8258 33.9146C37.679 33.9146 35.1279 36.1601 35.1279 38.9301C35.1279 41.7001 37.679 43.9456 40.8258 43.9456Z" fill="black"/>
<path d="M63.6166 43.9456C66.7635 43.9456 69.3145 41.7001 69.3145 38.9301C69.3145 36.1601 66.7635 33.9146 63.6166 33.9146C60.4697 33.9146 57.9187 36.1601 57.9187 38.9301C57.9187 41.7001 60.4697 43.9456 63.6166 43.9456Z" fill="black"/>
<path d="M86.4079 43.9456C89.5547 43.9456 92.1058 41.7001 92.1058 38.9301C92.1058 36.1601 89.5547 33.9146 86.4079 33.9146C83.261 33.9146 80.71 36.1601 80.71 38.9301C80.71 41.7001 83.261 43.9456 86.4079 43.9456Z" fill="black"/>
</svg>
